<svg width="27" height="22" viewBox="0 0 27 22" fill="none" xmlns="http://www.w3.org/2000/svg">
<path d="M22.2058 13.5225C21.127 14.1601 19.888 14.4954 18.6255 14.4915C17.5679 14.4833 16.5222 14.273 15.5481 13.8725C14.7973 14.903 14.3954 16.1354 14.3985 17.3982V20.6232C14.3988 20.7431 14.3737 20.8618 14.3248 20.972C14.2759 21.0821 14.2042 21.1812 14.1142 21.2633C14.0243 21.3453 13.9179 21.4085 13.8017 21.4489C13.6856 21.4893 13.5621 21.506 13.439 21.4981C13.2077 21.4785 12.9926 21.3746 12.8368 21.2073C12.681 21.04 12.5959 20.8216 12.5988 20.5959V19.2354L8.25479 15.012C7.60903 15.2462 6.92608 15.3687 6.23687 15.374C5.28806 15.3763 4.35702 15.1239 3.54633 14.6446C1.09536 13.1967 -0.224042 9.8645 0.0312905 5.72746C0.0441465 5.51343 0.13739 5.31144 0.29332 5.15984C0.449249 5.00824 0.657007 4.91758 0.877149 4.90508C5.13231 4.66121 8.55961 5.93961 10.0444 8.32254C10.6277 9.25656 10.8824 10.3498 10.7699 11.4371C10.7629 11.5213 10.7309 11.6018 10.6779 11.6687C10.6249 11.7357 10.553 11.7863 10.471 11.8144C10.3891 11.8425 10.3005 11.8469 10.216 11.8271C10.1315 11.8073 10.0547 11.7642 9.99487 11.7028L7.83523 9.50471C7.66511 9.34756 7.43857 9.26125 7.20392 9.26417C6.96928 9.26709 6.74509 9.35902 6.57915 9.52034C6.41322 9.68167 6.31867 9.89964 6.31567 10.1278C6.31266 10.3559 6.40144 10.5762 6.56307 10.7416L12.6236 16.7836C12.6303 16.6983 12.6382 16.613 12.6472 16.5288C12.844 14.9068 13.5801 13.3915 14.7438 12.2135L20.4342 6.36721C20.6031 6.20319 20.698 5.98068 20.6981 5.74862C20.6982 5.51657 20.6035 5.29397 20.4348 5.12981C20.2661 4.96565 20.0372 4.87337 19.7986 4.87327C19.5599 4.87317 19.3309 4.96525 19.1621 5.12927L13.6505 10.7962C13.5953 10.853 13.5255 10.8945 13.4483 10.9162C13.3711 10.9379 13.2893 10.9391 13.2115 10.9196C13.1337 10.9002 13.0626 10.8609 13.0057 10.8057C12.9488 10.7506 12.9081 10.6816 12.8879 10.606C12.3547 8.69436 12.5898 6.79152 13.6078 5.1577C15.6167 1.93381 20.2914 0.208125 26.1134 0.540576C26.3336 0.553075 26.5413 0.64373 26.6972 0.795331C26.8532 0.946932 26.9464 1.14892 26.9593 1.36295C27.2967 7.02445 25.5218 11.5694 22.2058 13.5225Z" fill="white"/>
</svg>
