<svg width="30" height="30" viewBox="0 0 30 30" fill="none" xmlns="http://www.w3.org/2000/svg">
<path d="M22.1931 17.5003C23.7457 17.5003 25.0042 18.7588 25.0042 20.3114V21.0306C25.0042 22.1485 24.6047 23.2295 23.8779 24.0788C21.9161 26.3706 18.9321 27.5016 15.0005 27.5016C11.0681 27.5016 8.08561 26.3703 6.12773 24.0774C5.40302 23.2288 5.00488 22.1494 5.00488 21.0334V20.3114C5.00488 18.7588 6.26345 17.5003 7.81597 17.5003H22.1931ZM22.1931 19.3753H7.81597C7.29898 19.3753 6.87988 19.7944 6.87988 20.3114V21.0334C6.87988 21.703 7.11877 22.3506 7.55358 22.8598C9.12022 24.6944 11.5776 25.6266 15.0005 25.6266C18.4234 25.6266 20.8829 24.6944 22.4534 22.8595C22.8896 22.3499 23.1292 21.7013 23.1292 21.0306V20.3114C23.1292 19.7944 22.7101 19.3753 22.1931 19.3753ZM15.0005 2.5061C18.4522 2.5061 21.2505 5.30433 21.2505 8.7561C21.2505 12.2079 18.4522 15.0061 15.0005 15.0061C11.5487 15.0061 8.75045 12.2079 8.75045 8.7561C8.75045 5.30433 11.5487 2.5061 15.0005 2.5061ZM15.0005 4.3811C12.5842 4.3811 10.6254 6.33987 10.6254 8.7561C10.6254 11.1724 12.5842 13.1311 15.0005 13.1311C17.4167 13.1311 19.3755 11.1724 19.3755 8.7561C19.3755 6.33987 17.4167 4.3811 15.0005 4.3811Z" fill="white"/>
</svg>
